<?xml version="1.0"?>
<svg xmlns="http://www.w3.org/2000/svg" width="50" height="50" viewBox="0 0 50 50">
    <path d="M 19 1 C 18.876703 1.0002031 18.74625 1.01425 18.625 1.0625 L 8.625 5.0625 C 8.348 5.1735 8.1535 5.4025 8.0625 5.6875 C 7.9715 5.9705 7.99525 6.28025 8.15625 6.53125 C 8.37625 6.87425 13.46825 15.0025 6.40625 20.1875 C 6.14925 20.3755 6 20.682 6 21 L 6 24 L 8 24 C 9.654 24 11 25.346 11 27 L 11 30 C 11 31.654 9.654 33 8 33 L 6 33 L 6 34 L 8 34 C 9.654 34 11 35.346 11 37 L 11 40 C 11 41.654 9.654 43 8 43 L 6 43 L 6 46 C 6 46.434 6.2745 46.8035 6.6875 46.9375 C 6.9465 47.0205 13.179 49 25 49 C 36.821 49 43.0535 47.0205 43.3125 46.9375 C 43.7255 46.8035 44 46.434 44 46 L 44 43 L 42 43 C 40.346 43 39 41.654 39 40 L 39 37 C 39 35.346 40.346 34 42 34 L 44 34 L 44 33 L 42 33 C 40.346 33 39 31.654 39 30 L 39 27 C 39 25.346 40.346 24 42 24 L 44 24 L 44 21.1875 C 44 20.8925 43.88125 20.6275 43.65625 20.4375 C 36.83125 14.6895 41.63575 6.86125 41.84375 6.53125 C 42.00175 6.28025 42.0285 5.9695 41.9375 5.6875 C 41.8455 5.4045 41.651 5.1725 41.375 5.0625 L 31.375 1.0625 C 30.898 0.8735 30.32775 1.1005 30.09375 1.5625 C 30.07675 1.5965 28.316 5 25 5 C 21.684 5 19.92225 1.5935 19.90625 1.5625 C 19.73225 1.2145 19.369891 0.99939062 19 1 z M 16 21 L 34 21 C 35.159 21 36 21.841 36 23 L 36 41 C 36 42.159 35.159 43 34 43 L 16 43 C 14.841 43 14 42.159 14 41 L 14 23 C 14 21.841 14.841 21 16 21 z M 16 23 L 16 41 L 34 41 C 34.035 41 34.0625 41 34.0625 41 L 34 23 L 16 23 z M 6 26 C 5.448 26 5 26.447 5 27 L 5 30 C 5 30.553 5.448 31 6 31 L 8 31 C 8.552 31 9 30.553 9 30 L 9 27 C 9 26.447 8.552 26 8 26 L 6 26 z M 42 26 C 41.447 26 41 26.447 41 27 L 41 30 C 41 30.553 41.447 31 42 31 L 44 31 C 44.553 31 45 30.553 45 30 L 45 27 C 45 26.447 44.553 26 44 26 L 42 26 z M 6 36 C 5.448 36 5 36.447 5 37 L 5 40 C 5 40.553 5.448 41 6 41 L 8 41 C 8.552 41 9 40.553 9 40 L 9 37 C 9 36.447 8.552 36 8 36 L 6 36 z M 42 36 C 41.447 36 41 36.447 41 37 L 41 40 C 41 40.553 41.447 41 42 41 L 44 41 C 44.553 41 45 40.553 45 40 L 45 37 C 45 36.447 44.553 36 44 36 L 42 36 z"/>
</svg>
