<svg version="1.1" xmlns="http://www.w3.org/2000/svg" xmlns:xlink="http://www.w3.org/1999/xlink" x="0px" y="0px" viewBox="0 0 1000 1000" enable-background="new 0 0 1000 1000" xml:space="preserve">
<metadata> Svg Vector Icons : http://www.onlinewebfonts.com/icon </metadata>
<g><g transform="translate(0.000000,512.000000) scale(0.100000,-0.100000)"><path d="M636.5,5000.6c-214.6-69-383.2-214.6-477.1-413.8L100,4462.2V122.6v-4339.6l59.4-124.5c74.7-159,212.7-297,371.7-371.7l124.5-59.4l2500.3-5.8c1375.6-1.9,2519.5,0,2542.4,5.8c118.8,28.7,160.9,182,72.8,268.2c-36.4,38.3-65.1,47.9-139.9,47.9h-93.9l49.8,99.6l49.8,101.5V113.1v4368.3l-53.7,111.1c-76.6,153.3-214.6,289.3-371.7,364l-130.3,61.3l-2184.2,3.8C1169.1,5023.6,697.8,5019.8,636.5,5000.6z M5056.5,4682.6c182-51.7,262.5-191.6,264.4-454.1v-178.2H2868.5H416.1v159c0,197.3,24.9,287.4,101.5,369.8c116.9,126.5-1.9,120.7,2341.3,122.6C4265.2,4701.7,5010.5,4694.1,5056.5,4682.6z M5320.9,611.2V-2483H2868.5H416.1V611.2v3094.2h2452.4h2452.4V611.2z M5317.1-3502.3c-5.8-649.5-7.7-680.2-46-753c-23-42.1-59.4-92-80.5-111.1c-99.6-90.1-59.4-88.1-2312.5-90.1c-1494.4,0-2149.7,5.7-2203.3,21.1c-97.7,26.8-210.8,139.9-237.6,237.6c-13.4,49.8-21.1,310.4-21.1,724.2v645.7h2452.4h2454.3L5317.1-3502.3z"/><path d="M2134.7,4517.8c-101.6-55.6-116.9-174.4-34.5-258.7l55.6-55.6H2539c352.5,0,385.1,3.8,431.1,38.3c93.9,74.7,80.5,222.3-26.8,277.8C2864.7,4561.9,2211.4,4559.9,2134.7,4517.8z"/><path d="M3297.7,4529.3c-111.1-44.1-134.1-182-47.9-270.2c51.7-51.7,67.1-55.6,193.5-55.6c126.5,0,141.8,3.8,193.5,55.6c88.1,88.1,70.9,203.1-40.2,260.6C3537.2,4550.4,3362.8,4556.1,3297.7,4529.3z"/><path d="M2698-3008c-205-67.1-404.3-274-461.7-479c-103.5-373.6,231.8-797,632.3-797c176.3,0,312.3,61.3,452.2,199.3c153.3,153.3,206.9,287.4,195.4,480.9C3489.3-3201.5,3062-2891.1,2698-3008z M3058.2-3360.5c88.1-65.1,124.5-132.2,132.2-247.2c13.4-216.5-109.2-350.6-321.9-350.6c-141.8,0-228,46-281.6,153.3c-97.7,189.7-24.9,408.1,157.1,477.1C2824.5-3299.2,3000.7-3316.4,3058.2-3360.5z"/><path d="M6556.7,4680.6c-97.7-57.5-118.8-178.2-42.2-254.8c36.4-36.4,70.9-46,224.2-55.6c333.4-24.9,666.7-134.1,913.9-302.7c132.2-90,341-295.1,438.7-431.1c111.1-155.2,228-404.3,277.8-592c34.5-122.6,44.1-224.2,49.8-517.3l9.6-364l-371.7,369.8c-350.6,346.8-375.5,367.9-444.5,367.9c-97.7,0-164.8-67.1-164.8-166.7c0-69,24.9-95.8,532.6-605.4c502-502,538.4-534.6,605.4-536.5c69-1.9,92,19.2,609.3,538.4c503.9,502,540.3,542.2,540.3,605.4c0,93.9-69,164.8-159,164.8c-63.2,0-95.8-28.7-436.8-367.9l-369.8-369.8v176.3c0,549.9-115,998.2-346.8,1358.4c-308.5,473.2-758.7,800.9-1297.1,938.8C6913,4690.2,6614.2,4713.2,6556.7,4680.6z"/><path d="M5824.8,584.4c-74.7-46-95.8-130.3-55.5-208.8c15.3-30.7,44.1-61.3,59.4-69c17.3-5.8,206.9-11.5,419.6-11.5c381.3,0,388.9,0,429.2,44.1c59.4,63.2,55.6,166.7-7.7,226.1c-47.9,44.1-57.5,46-415.8,51.7C5916.8,620.8,5880.4,618.9,5824.8,584.4z"/><path d="M7148.7,594c-38.3-17.2-67.1-47.9-80.5-86.2c-24.9-69-15.3-107.3,40.2-168.6c38.3-42.1,49.8-44.1,429.2-44.1c216.5,0,406.2,7.7,425.3,19.2c59.4,30.7,88.1,124.5,59.4,191.6c-42.1,103.5-93.9,115-473.2,115C7305.8,618.9,7190.9,611.2,7148.7,594z"/><path d="M8482.2,607.4c-111.1-40.2-147.5-168.6-74.7-262.5l38.3-49.8h358.3c197.3,0,396.6-9.6,444.5-21.1c136-30.7,222.2-97.7,287.4-228c69-136,126.4-182,208.8-162.9c70.9,15.3,136,92,136,157.1c0,88.1-111.1,285.5-210.8,375.5c-115,103.5-222.2,157.1-373.6,183.9C9183.4,620.8,8535.8,626.5,8482.2,607.4z"/><path d="M8641.2,76.7l-53.6-46v-392.8c0-390.9,0-394.7,46-442.6c63.2-67.1,176.3-69,241.4-1.9c47.9,46,47.9,47.9,47.9,421.5c0,379.4-7.7,431.1-74.7,482.8C8796.4,138,8700.6,126.5,8641.2,76.7z"/><path d="M9622.2-500c-47.9-46-47.9-47.9-47.9-431.1v-387l55.6-55.6c34.5-32.6,76.6-55.5,107.3-55.5c30.6,0,72.8,23,107.3,55.5l55.6,55.6v387c0,383.2,0,385.1-47.9,431.1c-30.6,32.6-67.1,47.9-115,47.9C9689.2-452.1,9652.8-467.5,9622.2-500z"/><path d="M8668.1-1201.3c-72.8-42.1-90-134.1-90-479c0-258.6,5.7-341,30.6-390.8c53.7-115,197.4-132.2,275.9-34.5c34.5,46,38.3,78.6,38.3,431.1v383.2l-55.6,55.5C8807.9-1176.3,8731.3-1164.9,8668.1-1201.3z"/><path d="M9660.5-1778c-80.5-46-84.3-67.1-86.2-471.3c0-387,0-388.9,47.9-434.9c65.2-67.1,168.6-65.1,229.9,1.9c47.9,51.7,47.9,55.6,47.9,433v383.2l-55.6,55.6C9785-1753,9723.7-1741.5,9660.5-1778z"/><path d="M8671.9-2511.7c-28.7-15.3-61.3-55.6-72.8-88.1c-32.6-93.9-26.8-691.7,5.8-774.1c49.8-118.8,170.5-141.8,262.5-49.8l55.6,55.6v385.1c0,369.8-1.9,385.1-42.1,431.1C8827.1-2490.7,8739-2473.4,8671.9-2511.7z"/><path d="M9631.8-3111.4l-57.5-57.5v-387c0-383.2,0-385.1,47.9-431.1c63.2-65.1,166.7-65.1,229.9,0c47.9,46,47.9,47.9,47.9,429.2c0,369.8-1.9,385.1-42.2,431.1c-24.9,28.7-70.9,55.5-105.4,61.3C9700.7-3055.9,9681.6-3063.5,9631.8-3111.4z"/><path d="M8635.5-3852.9c-38.3-40.2-46-72.8-53.6-208.8c-3.8-90-1.9-193.5,3.8-233.7c30.7-159,191.6-216.5,287.4-101.6c47.9,55.6,49.8,69,49.8,277.8c0,208.8-1.9,222.3-47.9,266.3C8809.8-3785.8,8696.8-3787.8,8635.5-3852.9z"/><path d="M9421-4370.2c-92-67.1-174.3-86.2-379.4-86.2c-162.9,0-182-3.8-224.2-47.9c-65.2-63.2-65.2-166.7,1.9-231.8c47.9-49.8,51.7-49.8,291.2-42.2c218.4,5.8,254.8,11.5,364,61.3c212.7,97.7,291.2,243.3,185.8,346.8C9599.2-4307,9507.2-4307,9421-4370.2z"/><path d="M6200.3-4512c-32.6-34.5-55.6-76.6-55.6-107.3s23-72.8,55.6-107.3l55.5-55.6h387c383.2,0,385.1,0,431.1,47.9c32.6,30.7,47.9,67.1,47.9,115s-15.3,84.3-47.9,115c-46,47.9-47.9,47.9-431.1,47.9h-387L6200.3-4512z"/><path d="M7514.7-4500.5c-72.8-61.3-72.8-176.3,0-237.6c47.9-42.2,61.3-44.1,431.1-44.1c373.6,0,381.3,0,433,46c40.2,34.5,53.7,61.3,53.7,116.9s-13.4,82.4-53.7,116.9c-51.7,46-59.4,46-433,46C7576-4456.4,7562.6-4458.3,7514.7-4500.5z"/></g></g>
</svg>