<svg fill="#fff" xmlns="http://www.w3.org/2000/svg" viewBox="0 0 1000 1000"><path d="M63.65 11.94c-21.46 6.9-38.32 21.46-47.71 41.38L10 65.78V933.7l5.94 12.45c7.47 15.9 21.27 29.7 37.17 37.17l12.45 5.94 250.03.58c137.56.19 251.95 0 254.24-.58 11.88-2.87 16.09-18.2 7.28-26.82-3.64-3.83-6.51-4.79-13.99-4.79h-9.39l4.98-9.96 4.98-10.15V63.86l-5.37-11.11c-7.66-15.33-21.46-28.93-37.17-36.4l-13.03-6.13-218.42-.38c-172.79-.2-219.92.18-226.05 2.1zm442 31.8c18.2 5.17 26.25 19.16 26.44 45.41v17.82H41.61v-15.9c0-19.73 2.49-28.74 10.15-36.98 11.69-12.65-.19-12.07 234.13-12.26 140.63 0 215.16.76 219.76 1.91zm26.44 407.14V760.3H41.61V141.46h490.48v309.42zm-.38 411.35c-.58 64.95-.77 68.02-4.6 75.3-2.3 4.21-5.94 9.2-8.05 11.11-9.96 9.01-5.94 8.81-231.25 9.01-149.44 0-214.97-.57-220.33-2.11-9.77-2.68-21.08-13.99-23.76-23.76-1.34-4.98-2.11-31.04-2.11-72.42v-64.57h490.67l-.57 67.44z"/><path d="M213.47 60.22c-10.16 5.56-11.69 17.44-3.45 25.87l5.56 5.56h38.32c35.25 0 38.51-.38 43.11-3.83 9.39-7.47 8.05-22.23-2.68-27.78-7.86-4.23-73.19-4.03-80.86.18zm116.3-1.15c-11.11 4.41-13.41 18.2-4.79 27.02 5.17 5.17 6.71 5.56 19.35 5.56 12.65 0 14.18-.38 19.35-5.56 8.81-8.81 7.09-20.31-4.02-26.06-5.94-3.07-23.38-3.64-29.89-.96zM269.8 812.8c-20.5 6.71-40.43 27.4-46.17 47.9-10.35 37.36 23.18 79.7 63.23 79.7 17.63 0 31.23-6.13 45.22-19.93 15.33-15.33 20.69-28.74 19.54-48.09-2.69-40.23-45.42-71.27-81.82-59.58zm36.02 35.25c8.81 6.51 12.45 13.22 13.22 24.72 1.34 21.65-10.92 35.06-32.19 35.06-14.18 0-22.8-4.6-28.16-15.33-9.77-18.97-2.49-40.81 15.71-47.71 8.05-2.87 25.67-1.15 31.42 3.26zM655.67 43.94c-9.77 5.75-11.88 17.82-4.22 25.48 3.64 3.64 7.09 4.6 22.42 5.56 33.34 2.49 66.67 13.41 91.39 30.27 13.22 9 34.1 29.51 43.87 43.11 11.11 15.52 22.8 40.43 27.78 59.2 3.45 12.26 4.41 22.42 4.98 51.73l.96 36.4-37.17-36.98c-35.06-34.68-37.55-36.79-44.45-36.79-9.77 0-16.48 6.71-16.48 16.67 0 6.9 2.49 9.58 53.26 60.54 50.2 50.2 53.84 53.46 60.54 53.65 6.9.19 9.2-1.92 60.93-53.84 50.39-50.2 54.03-54.22 54.03-60.54 0-9.39-6.9-16.48-15.9-16.48-6.32 0-9.58 2.87-43.68 36.79l-36.98 36.98v-17.63c0-54.99-11.5-99.82-34.68-135.84-30.85-47.32-75.87-80.09-129.71-93.88-21.26-5.36-51.14-7.66-56.89-4.4zm-73.19 409.62c-7.47 4.6-9.58 13.03-5.55 20.88 1.53 3.07 4.41 6.13 5.94 6.9 1.73.58 20.69 1.15 41.96 1.15 38.13 0 38.89 0 42.92-4.41 5.94-6.32 5.56-16.67-.77-22.61-4.79-4.41-5.75-4.6-41.58-5.17-33.72-.38-37.36-.19-42.92 3.26zm132.39-.96c-3.83 1.72-6.71 4.79-8.05 8.62-2.49 6.9-1.53 10.73 4.02 16.86 3.83 4.21 4.98 4.41 42.92 4.41 21.65 0 40.62-.77 42.53-1.92 5.94-3.07 8.81-12.45 5.94-19.16-4.21-10.35-9.39-11.5-47.32-11.5-24.33.2-35.82.97-40.04 2.69zm133.35-1.34c-11.11 4.02-14.75 16.86-7.47 26.25l3.83 4.98h35.83c19.73 0 39.66.96 44.45 2.11 13.6 3.07 22.22 9.77 28.74 22.8 6.9 13.6 12.64 18.2 20.88 16.29 7.09-1.53 13.6-9.2 13.6-15.71 0-8.81-11.11-28.55-21.08-37.55-11.5-10.35-22.22-15.71-37.36-18.39-11.3-2.12-76.06-2.69-81.42-.78zm15.9 53.07l-5.36 4.6v39.28c0 39.09 0 39.47 4.6 44.26 6.32 6.71 17.63 6.9 24.14.19 4.79-4.6 4.79-4.79 4.79-42.15 0-37.94-.77-43.11-7.47-48.28-5.18-4.03-14.76-2.88-20.7 2.1zm98.1 57.67c-4.79 4.6-4.79 4.79-4.79 43.11v38.7l5.56 5.56c3.45 3.26 7.66 5.55 10.73 5.55 3.06 0 7.28-2.3 10.73-5.55l5.56-5.56v-38.7c0-38.32 0-38.51-4.79-43.11-3.06-3.26-6.71-4.79-11.5-4.79-4.8 0-8.44 1.54-11.5 4.79zm-95.41 70.13c-7.28 4.21-9 13.41-9 47.9 0 25.86.57 34.1 3.06 39.08 5.37 11.5 19.74 13.22 27.59 3.45 3.45-4.6 3.83-7.86 3.83-43.11v-38.32l-5.56-5.55c-5.94-5.95-13.6-7.09-19.92-3.45zm99.24 57.67c-8.05 4.6-8.43 6.71-8.62 47.13 0 38.7 0 38.89 4.79 43.49 6.52 6.71 16.86 6.51 22.99-.19 4.79-5.17 4.79-5.56 4.79-43.3v-38.32l-5.56-5.56c-5.94-5.75-12.07-6.9-18.39-3.25zm-98.86 73.37c-2.87 1.53-6.13 5.56-7.28 8.81-3.26 9.39-2.68 69.17.58 77.41 4.98 11.88 17.05 14.18 26.25 4.98l5.56-5.56V810.3c0-36.98-.19-38.51-4.21-43.11-5.38-6.12-14.19-7.85-20.9-4.02zm95.99 59.97l-5.75 5.75v38.7c0 38.32 0 38.51 4.79 43.11a15.973 15.973 0 0 0 22.99 0c4.79-4.6 4.79-4.79 4.79-42.92 0-36.98-.19-38.51-4.22-43.11-2.49-2.87-7.09-5.55-10.54-6.13-5.17-.95-7.08-.19-12.06 4.6zm-99.63 74.15c-3.83 4.02-4.6 7.28-5.36 20.88-.38 9-.19 19.35.38 23.37 3.07 15.9 19.16 21.65 28.74 10.16 4.79-5.56 4.98-6.9 4.98-27.78 0-20.88-.19-22.23-4.79-26.63-6.52-6.71-17.82-6.51-23.95 0zm78.55 51.73c-9.2 6.71-17.43 8.62-37.94 8.62-16.29 0-18.2.38-22.42 4.79-6.52 6.32-6.52 16.67.19 23.18 4.79 4.98 5.17 4.98 29.12 4.22 21.84-.58 25.48-1.15 36.4-6.13 21.27-9.77 29.12-24.33 18.58-34.68-6.11-6.32-15.31-6.32-23.93 0zM620.03 963.2c-3.26 3.45-5.56 7.66-5.56 10.73s2.3 7.28 5.56 10.73l5.55 5.56h38.7c38.32 0 38.51 0 43.11-4.79 3.26-3.07 4.79-6.71 4.79-11.5s-1.53-8.43-4.79-11.5c-4.6-4.79-4.79-4.79-43.11-4.79h-38.7l-5.55 5.56zm131.44-1.15c-7.28 6.13-7.28 17.63 0 23.76 4.79 4.22 6.13 4.41 43.11 4.41 37.36 0 38.13 0 43.3-4.6 4.02-3.45 5.37-6.13 5.37-11.69s-1.34-8.24-5.37-11.69c-5.17-4.6-5.94-4.6-43.3-4.6-36.98 0-38.32.19-43.11 4.41z"/></svg>