<svg xmlns="http://www.w3.org/2000/svg" width="50" height="50" viewBox="0 0 50 50"><path d="M19 1a1 1 0 0 0-.375.063l-10 4a.973.973 0 0 0-.563.625.993.993 0 0 0 .094.843c.22.343 5.312 8.471-1.75 13.657A1.01 1.01 0 0 0 6 21v3h2c1.654 0 3 1.346 3 3v3c0 1.654-1.346 3-3 3H6v1h2c1.654 0 3 1.346 3 3v3c0 1.654-1.346 3-3 3H6v3c0 .434.274.803.688.938C6.947 47.02 13.178 49 25 49c11.821 0 18.053-1.98 18.313-2.063A.978.978 0 0 0 44 46v-3h-2c-1.654 0-3-1.346-3-3v-3c0-1.654 1.346-3 3-3h2v-1h-2c-1.654 0-3-1.346-3-3v-3c0-1.654 1.346-3 3-3h2v-2.813a.96.96 0 0 0-.344-.75c-6.825-5.748-2.02-13.576-1.812-13.906.158-.25.184-.561.093-.843a.98.98 0 0 0-.562-.625l-10-4c-.477-.19-1.047.038-1.281.5C30.077 1.597 28.316 5 25 5c-3.316 0-5.078-3.407-5.094-3.438A1.024 1.024 0 0 0 19 1zm-3 20h18c1.159 0 2 .841 2 2v18c0 1.159-.841 2-2 2H16c-1.159 0-2-.841-2-2V23c0-1.159.841-2 2-2zm0 2v18h18.063L34 23H16zM6 26a1 1 0 0 0-1 1v3a1 1 0 0 0 1 1h2a1 1 0 0 0 1-1v-3a1 1 0 0 0-1-1H6zm36 0a1 1 0 0 0-1 1v3a1 1 0 0 0 1 1h2a1 1 0 0 0 1-1v-3a1 1 0 0 0-1-1h-2zM6 36a1 1 0 0 0-1 1v3a1 1 0 0 0 1 1h2a1 1 0 0 0 1-1v-3a1 1 0 0 0-1-1H6zm36 0a1 1 0 0 0-1 1v3a1 1 0 0 0 1 1h2a1 1 0 0 0 1-1v-3a1 1 0 0 0-1-1h-2z"/></svg>