<svg xmlns="http://www.w3.org/2000/svg" viewBox="0 0 50 50" width="50" height="50"><path d="M8.93.002A.999.999 0 0 0 8.006 1.1l.836 8.359 3.771 5.658C12.01 8.454 12 2.94 12 2.875c0-.334.167-.646.445-.832.014-.009.154-.101.397-.24L9.447.105A1 1 0 0 0 8.93.002zm32.138 0a.996.996 0 0 0-.515.103l-3.397 1.698c.242.139.385.231.399.24a1 1 0 0 1 .445.832c0 .065-.01 5.544-.607 12.178l3.76-5.526.841-8.427a1.004 1.004 0 0 0-.926-1.098zM24 1.025c-2.101.096-4.083.478-5.691.885l.671 12.705 4.788 5.746c.15.18.232.405.232.639v7h2v-7c0-.234.081-.46.23-.64l4.788-5.745.673-12.709c-1.606-.406-3.596-.785-5.691-.88V12a1 1 0 0 1-2 0V1.025zm9.666 1.444l-.668 12.584a1.008 1.008 0 0 1-.228.588L28 21.36v.918l7.049-4.013c.788-6.684.923-12.945.945-14.823-.313-.17-.78-.404-1.365-.638l.004-.012a33.281 33.281 0 0 0-.967-.324zm-17.332.002c-.371.118-.709.23-.967.322l.004.01c-.585.234-1.051.468-1.365.64.023 1.89.16 8.223.96 14.95L22 22.3v-.94l-4.77-5.72a1 1 0 0 1-.228-.588L16.334 2.47zm-7.82 10.103C8.25 13.897 8 15.952 8 19c0 3.549.75 6.324.984 7.102-.046.567-.083 2.063.403 4.47l.013-.006c.83 1.718 2.095 3.388 2.604 3.434H14a1 1 0 0 1 .895.553l3 6a1 1 0 0 1-.188 1.154l-2.426 2.426c3.06 4.082 6.094 5.672 6.268 5.76.14.07.294.107.451.107h6a.996.996 0 0 0 .451-.107c.175-.088 3.244-1.696 6.322-5.83l-2.355-2.356a1 1 0 0 1-.188-1.154l3-6a1 1 0 0 1 .895-.553h2c.463-.043 1.607-1.518 2.418-3.082.562-2.611.52-4.222.473-4.816.234-.778.984-3.553.984-7.102 0-3.038-.25-5.088-.512-6.412l-4.662 6.85c-.086.126-.2.23-.332.306L28 24.582v3.656c.367.065.704.135.984.215L37 25h3l-4 5h-4.945l-2.106 6.316a1 1 0 0 1-1.656.391C27.273 36.689 26.519 36 25 36c-1.519 0-2.274.69-2.305.719a1.016 1.016 0 0 1-.933.244 1.002 1.002 0 0 1-.71-.647L18.946 30H14l-4-5h3l8.016 3.453c.28-.079.618-.15.984-.217v-3.648l-8.484-4.715a.993.993 0 0 1-.348-.318l-4.654-6.98zM25 30c-2.027 0-3.183.27-3.783.484l1.334 4.004C23.15 34.225 23.967 34 25 34s1.848.225 2.45.488l1.335-4.008C28.198 30.273 27.04 30 25 30zm-14.143 5.662c.315.858.677 1.768 1.102 2.738a29.455 29.455 0 0 0 2.162 4.065l1.662-1.662-2.4-4.803H12c-.392 0-.775-.129-1.143-.338zm28.256.08c-.32.16-.65.258-.988.258h-1.383l-2.4 4.803 1.584 1.584a29.5 29.5 0 0 0 2.117-3.985c.411-.94.762-1.825 1.07-2.66z"/></svg>