<svg xmlns="http://www.w3.org/2000/svg" viewBox="0 0 24 24"><path d="M14 2C8.859 2 4 5 4 5s.018.824 0 2h2l1 1-1 1H3.937a35.213 35.213 0 0 1-.156 2H6l1 1-1 1H3.469c-.144.644-.337 1.203-.563 1.625L6 16v1a2 2 0 0 0 4 0v-1l3.813-2.281S13 12.642 13 11.469C13 8.84 14 2 14 2zm-1.469 13.656L11 16.562V17c0 1.654-1.346 3-3 3s-3-1.346-3-3v-.344l-1.031-.468-.031.03s-1.032 1.36-1.032 3.063c0 1.704.906 2.719.906 2.719h10.22c.236-2.618 1.39-4.269 2.405-5.25l-3.906-1.094zm-4.531.5c.472 0 .844.371.844.844a.836.836 0 0 1-.844.844.836.836 0 0 1-.844-.844c0-.473.372-.844.844-.844zm9.594.907c-.934.744-2.26 2.255-2.532 4.937H22l-.625-1.844a4.417 4.417 0 0 0-3.031-2.875l-.75-.218z"/></svg>